<svg id="Capa_1" data-name="Capa 1" xmlns="http://www.w3.org/2000/svg" viewBox="0 0 425.2 425.2"><defs><style>.cls-1{fill:#cc2b2f;}</style></defs><polygon class="cls-1" points="191.49 233.26 187.91 208.57 177.35 205.05 173.8 219.26 191.49 233.26"/><polygon class="cls-1" points="138.41 110.12 145.77 139.45 175.1 190.8 138.41 139.45 138.41 110.12"/><path class="cls-1" d="M257.65,237.57l0,11.12L235.07,260a8.38,8.38,0,0,1-10.73-2.82l-7.92-11.84a2.8,2.8,0,0,1,.41-3.6l5.95-5.63a1.11,1.11,0,0,0-.76-1.91h-2.26a1,1,0,0,1-.82-1.42l24.42-41.93,11.83-54.77a30.59,30.59,0,0,1,11.56-18l20-15-36.46,14.69-29,58.29h-15l-29-58.29-36.46-14.69,20,15a30.63,30.63,0,0,1,11.56,18l11.83,54.77,24.41,41.93a.94.94,0,0,1-.81,1.42h-2.28a1.11,1.11,0,0,0-.76,1.92l6,5.62a2.79,2.79,0,0,1,.4,3.6l-7.91,11.84A8.38,8.38,0,0,1,192.65,260l-22.54-11.35-.05-11.12a8,8,0,0,1,2.35-5.68l5-4.95-10.94,7.28v18.3l32.81,18.15h29.18l32.8-18.15v-18.3l-10.93-7.28,5,4.95A7.92,7.92,0,0,1,257.65,237.57Z"/><polygon class="cls-1" points="235.68 230.5 239.37 205.05 250.25 201.42 253.91 216.07 235.68 230.5"/><polygon class="cls-1" points="286.79 110.38 279.47 139.52 250.32 190.55 286.79 139.52 286.79 110.38"/><path class="cls-1" d="M225,279.32H200.3l-12.36,21.4,12.36,21.41H225l12.36-21.41Zm-2.2,29.43a26,26,0,0,1-4.1-.37,30.85,30.85,0,0,1-3.88-.91,36.2,36.2,0,0,1-3.69-1.37L208.6,305l0-2.58a28,28,0,0,1,.28-3.53,28.86,28.86,0,0,1,.67-3.53,27.21,27.21,0,0,1,1.18-3.54,18.92,18.92,0,0,1,1.88-3.53,19,19,0,0,1,1.89,3.53,27.21,27.21,0,0,1,1.18,3.54,28.86,28.86,0,0,1,.67,3.53c0,.26.1.8.1.8a13.53,13.53,0,0,1,1.28.62,29,29,0,0,1,3.4,2.06,25.91,25.91,0,0,1,3.19,2.6,19.07,19.07,0,0,1,2.87,3.4A19.7,19.7,0,0,1,222.81,308.75Z"/></svg>