<?xml version="1.0" standalone="no"?>
<!DOCTYPE svg PUBLIC "-//W3C//DTD SVG 20010904//EN"
 "http://www.w3.org/TR/2001/REC-SVG-20010904/DTD/svg10.dtd">
<svg version="1.0" xmlns="http://www.w3.org/2000/svg"
 width="426.000000pt" height="426.000000pt" viewBox="0 0 426.000000 426.000000"
 preserveAspectRatio="xMidYMid meet">
<metadata>
Created by potrace 1.14, written by Peter Selinger 2001-2017
</metadata>
<g transform="translate(0.000000,426.000000) scale(0.100000,-0.100000)"
fill="#000000" stroke="none">
<path d="M2815 3206 c-27 -13 -108 -47 -180 -75 l-130 -53 -140 -285 c-77
-157 -143 -287 -147 -289 -7 -5 -74 -7 -126 -5 -19 1 -43 42 -166 289 -160
320 -134 289 -291 352 -241 97 -238 96 -115 6 58 -43 118 -92 134 -110 44 -47
72 -118 101 -256 22 -105 78 -367 90 -420 1 -8 57 -109 124 -223 106 -182 133
-242 101 -222 -5 3 -12 1 -15 -5 -4 -6 10 -27 29 -46 20 -20 36 -41 36 -47 0
-16 -93 -148 -112 -158 -31 -17 -58 -9 -178 51 l-120 60 0 70 c0 67 2 72 38
112 l37 41 -57 -38 -58 -38 0 -97 c0 -84 2 -98 18 -103 9 -4 44 -21 77 -40 33
-18 92 -51 130 -72 39 -21 75 -42 82 -47 16 -13 319 -13 335 -1 7 6 49 30 93
54 44 24 109 59 145 80 l65 37 3 94 c3 105 10 91 -75 145 -27 17 -27 17 5 -20
29 -35 32 -43 32 -107 l0 -70 -120 -60 c-122 -61 -147 -68 -181 -50 -21 12
-109 140 -109 160 0 7 16 27 36 45 20 19 33 38 29 44 -3 6 -10 9 -15 6 -23
-14 -17 20 12 71 37 64 67 116 152 263 l59 103 57 269 c32 147 65 289 73 313
23 67 59 108 160 183 88 65 147 114 137 112 -3 0 -27 -10 -55 -23z"/>
<path d="M1390 2999 l0 -141 127 -176 c69 -98 140 -197 157 -221 17 -24 39
-53 49 -65 17 -20 17 -20 8 -1 -5 11 -48 87 -95 169 -47 82 -86 150 -86 151 0
2 -19 36 -43 77 -34 58 -50 102 -76 211 -18 75 -35 137 -37 137 -2 0 -4 -63
-4 -141z"/>
<path d="M2831 2989 c-32 -127 -36 -134 -176 -379 -79 -138 -142 -250 -140
-250 4 0 214 291 310 430 l50 73 0 124 c0 69 -2 126 -6 128 -3 3 -20 -54 -38
-126z"/>
<path d="M2442 2223 c-29 -10 -43 -22 -46 -36 -5 -24 -24 -153 -31 -205 -4
-36 -9 -38 56 13 136 106 130 99 120 133 -5 15 -14 46 -20 70 -13 46 -17 47
-79 25z"/>
<path d="M1765 2152 c-9 -31 -18 -64 -21 -73 -3 -10 25 -38 82 -83 47 -37 88
-65 90 -63 2 2 -4 57 -13 122 l-18 118 -52 18 -52 17 -16 -56z"/>
<path d="M1968 1395 c-23 -38 -51 -87 -63 -108 l-23 -39 62 -106 62 -107 125
-2 125 -2 63 109 63 109 -63 108 -62 108 -124 0 -125 0 -40 -70z m198 -112 c3
-18 11 -33 16 -33 14 0 88 -60 88 -71 0 -15 -82 -9 -130 9 l-45 18 3 49 c2 28
11 65 20 84 l16 35 13 -30 c6 -16 15 -44 19 -61z"/>
</g>
</svg>
